{
  "accessors": [
    {
      "bufferView": 2,
      "componentType": 5126,
      "count": 40304,
      "max": [
        104.61615753173828,
        1.9437642097473145,
        218.81117248535156
      ],
      "min": [
        -48.37520217895508,
        -2.5252861976623535,
        -212.261962890625
      ],
      "type": "VEC3"
    },
    {
      "bufferView": 2,
      "byteOffset": 483648,
      "componentType": 5126,
      "count": 40304,
      "max": [
        0.999999463558197,
        1.0,
        0.9999917149543762
      ],
      "min": [
        -1.0,
        -0.999940812587738,
        -1.0
      ],
      "type": "VEC3"
    },
    {
      "bufferView": 1,
      "componentType": 5126,
      "count": 40304,
      "max": [
        1.0000011920928955,
        1.0000003576278687
      ],
      "min": [
        0.0,
        0.0
      ],
      "type": "VEC2"
    },
    {
      "bufferView": 0,
      "componentType": 5125,
      "count": 205851,
      "type": "SCALAR"
    },
    {
      "bufferView": 2,
      "byteOffset": 967296,
      "componentType": 5126,
      "count": 14919,
      "max": [
        92.722900390625,
        1.3167738914489746,
        207.77584838867188
      ],
      "min": [
        -37.05516815185547,
        -2.4811177253723145,
        -208.44410705566406
      ],
      "type": "VEC3"
    },
    {
      "bufferView": 2,
      "byteOffset": 1146324,
      "componentType": 5126,
      "count": 14919,
      "max": [
        0.13426156342029572,
        1.0,
        0.20073078572750092
      ],
      "min": [
        -0.17914117872714996,
        0.979434609413147,
        -0.10403561592102051
      ],
      "type": "VEC3"
    },
    {
      "bufferView": 1,
      "byteOffset": 322432,
      "componentType": 5126,
      "count": 14919,
      "max": [
        1.0000003576278687,
        1.0000004768371582
      ],
      "min": [
        0.0,
        0.0
      ],
      "type": "VEC2"
    },
    {
      "bufferView": 0,
      "byteOffset": 823404,
      "componentType": 5125,
      "count": 22542,
      "type": "SCALAR"
    },
    {
      "bufferView": 2,
      "byteOffset": 1325352,
      "componentType": 5126,
      "count": 12923,
      "max": [
        100.91133880615234,
        1.9259684085845947,
        214.970703125
      ],
      "min": [
        -45.379554748535156,
        -2.495377540588379,
        -210.97265625
      ],
      "type": "VEC3"
    },
    {
      "bufferView": 2,
      "byteOffset": 1480428,
      "componentType": 5126,
      "count": 12923,
      "max": [
        0.9999998211860657,
        1.0,
        0.9897223711013794
      ],
      "min": [
        -0.9999992847442627,
        -0.9999132752418518,
        -0.9999138116836548
      ],
      "type": "VEC3"
    },
    {
      "bufferView": 1,
      "byteOffset": 441784,
      "componentType": 5126,
      "count": 12923,
      "max": [
        1.0000011920928955,
        1.0000003576278687
      ],
      "min": [
        0.0,
        0.0
      ],
      "type": "VEC2"
    },
    {
      "bufferView": 0,
      "byteOffset": 913572,
      "componentType": 5125,
      "count": 19419,
      "type": "SCALAR"
    },
    {
      "bufferView": 2,
      "byteOffset": 1635504,
      "componentType": 5126,
      "count": 5106,
      "max": [
        91.84184265136719,
        1.3089278936386108,
        205.78582763671875
      ],
      "min": [
        -36.05966567993164,
        -2.442812442779541,
        -207.86964416503906
      ],
      "type": "VEC3"
    },
    {
      "bufferView": 2,
      "byteOffset": 1696776,
      "componentType": 5126,
      "count": 5106,
      "max": [
        0.05927993357181549,
        1.0,
        0.05787767842411995
      ],
      "min": [
        -0.280934602022171,
        -0.9999133348464966,
        -0.04114069044589996
      ],
      "type": "VEC3"
    },
    {
      "bufferView": 1,
      "byteOffset": 545168,
      "componentType": 5126,
      "count": 5106,
      "max": [
        1.0000011920928955,
        1.000000238418579
      ],
      "min": [
        0.0,
        0.9999998211860657
      ],
      "type": "VEC2"
    },
    {
      "bufferView": 0,
      "byteOffset": 991248,
      "componentType": 5125,
      "count": 7656,
      "type": "SCALAR"
    },
    {
      "bufferView": 2,
      "byteOffset": 1758048,
      "componentType": 5126,
      "count": 7326,
      "max": [
        104.61615753173828,
        1.9437642097473145,
        218.81117248535156
      ],
      "min": [
        -48.37520217895508,
        -1.9510369300842285,
        -212.261962890625
      ],
      "type": "VEC3"
    },
    {
      "bufferView": 2,
      "byteOffset": 1845960,
      "componentType": 5126,
      "count": 7326,
      "max": [
        0.1313983052968979,
        1.0,
        0.15386280417442322
      ],
      "min": [
        -0.04412202164530754,
        -0.9999282360076904,
        -0.11976625770330429
      ],
      "type": "VEC3"
    },
    {
      "bufferView": 1,
      "byteOffset": 586016,
      "componentType": 5126,
      "count": 7326,
      "max": [
        1.0000003576278687,
        1.0000003576278687
      ],
      "min": [
        0.0,
        0.0
      ],
      "type": "VEC2"
    },
    {
      "bufferView": 0,
      "byteOffset": 1021872,
      "componentType": 5125,
      "count": 11082,
      "type": "SCALAR"
    },
    {
      "bufferView": 2,
      "byteOffset": 1933872,
      "componentType": 5126,
      "count": 11941,
      "max": [
        100.91133880615234,
        1.3517191410064697,
        214.970703125
      ],
      "min": [
        -45.379554748535156,
        -2.495377540588379,
        -210.97265625
      ],
      "type": "VEC3"
    },
    {
      "bufferView": 2,
      "byteOffset": 2077164,
      "componentType": 5126,
      "count": 11941,
      "max": [
        0.03494494780898094,
        1.0,
        0.04077068343758583
      ],
      "min": [
        -0.2074064016342163,
        -0.9999282956123352,
        -0.11976621299982071
      ],
      "type": "VEC3"
    },
    {
      "bufferView": 1,
      "byteOffset": 644624,
      "componentType": 5126,
      "count": 11941,
      "max": [
        1.0000003576278687,
        1.0000004768371582
      ],
      "min": [
        0.0,
        0.0
      ],
      "type": "VEC2"
    },
    {
      "bufferView": 0,
      "byteOffset": 1066200,
      "componentType": 5125,
      "count": 25143,
      "type": "SCALAR"
    }
  ],
  "asset": {
    "extras": {
      "author": "narlankaaditya (https://sketchfab.com/narlankaaditya)",
      "license": "CC-BY-4.0 (http://creativecommons.org/licenses/by/4.0/)",
      "source": "https://sketchfab.com/3d-models/paul-ricard-f1-circuit-d71a363f263a4504aff08d17366e7ccf",
      "title": "Paul Ricard F1 circuit"
    },
    "generator": "Sketchfab-10.95.0",
    "version": "2.0"
  },
  "bufferViews": [
    {
      "buffer": 0,
      "byteLength": 1166772,
      "name": "floatBufferViews",
      "target": 34963
    },
    {
      "buffer": 0,
      "byteLength": 740152,
      "byteOffset": 1166772,
      "byteStride": 8,
      "name": "floatBufferViews",
      "target": 34962
    },
    {
      "buffer": 0,
      "byteLength": 2220456,
      "byteOffset": 1906924,
      "byteStride": 12,
      "name": "floatBufferViews",
      "target": 34962
    }
  ],
  "buffers": [
    {
      "byteLength": 4127380,
      "uri": "scene.bin"
    }
  ],
  "materials": [
    {
      "doubleSided": true,
      "name": "Material.001",
      "pbrMetallicRoughness": {
        "baseColorFactor": [
          0.0,
          0.0,
          0.0,
          1.0
        ],
        "metallicFactor": 0.0,
        "roughnessFactor": 0.5
      }
    },
    {
      "doubleSided": true,
      "name": "Curb_Blue",
      "pbrMetallicRoughness": {
        "baseColorFactor": [
          0.0,
          0.251075,
          0.8,
          1.0
        ],
        "metallicFactor": 0.0,
        "roughnessFactor": 0.5
      }
    },
    {
      "doubleSided": true,
      "name": "Curb_Red",
      "pbrMetallicRoughness": {
        "baseColorFactor": [
          0.8,
          0.0535743,
          0.0516845,
          1.0
        ],
        "metallicFactor": 0.0,
        "roughnessFactor": 0.5
      }
    },
    {
      "doubleSided": true,
      "name": "Curb_White",
      "pbrMetallicRoughness": {
        "baseColorFactor": [
          0.8,
          0.8,
          0.8,
          1.0
        ],
        "metallicFactor": 0.0,
        "roughnessFactor": 0.5
      }
    },
    {
      "doubleSided": true,
      "name": "Curb_Black",
      "pbrMetallicRoughness": {
        "baseColorFactor": [
          0.00612408,
          0.0,
          0.0247578,
          1.0
        ],
        "metallicFactor": 0.0,
        "roughnessFactor": 0.5
      }
    },
    {
      "doubleSided": true,
      "name": "sand",
      "pbrMetallicRoughness": {
        "baseColorFactor": [
          0.8,
          0.286625,
          0.137494,
          1.0
        ],
        "metallicFactor": 0.0,
        "roughnessFactor": 0.5
      }
    }
  ],
  "meshes": [
    {
      "name": "Object_0",
      "primitives": [
        {
          "attributes": {
            "NORMAL": 1,
            "POSITION": 0,
            "TEXCOORD_0": 2
          },
          "indices": 3,
          "material": 0,
          "mode": 4
        }
      ]
    },
    {
      "name": "Object_1",
      "primitives": [
        {
          "attributes": {
            "NORMAL": 5,
            "POSITION": 4,
            "TEXCOORD_0": 6
          },
          "indices": 7,
          "material": 1,
          "mode": 4
        }
      ]
    },
    {
      "name": "Object_2",
      "primitives": [
        {
          "attributes": {
            "NORMAL": 9,
            "POSITION": 8,
            "TEXCOORD_0": 10
          },
          "indices": 11,
          "material": 2,
          "mode": 4
        }
      ]
    },
    {
      "name": "Object_3",
      "primitives": [
        {
          "attributes": {
            "NORMAL": 13,
            "POSITION": 12,
            "TEXCOORD_0": 14
          },
          "indices": 15,
          "material": 3,
          "mode": 4
        }
      ]
    },
    {
      "name": "Object_4",
      "primitives": [
        {
          "attributes": {
            "NORMAL": 17,
            "POSITION": 16,
            "TEXCOORD_0": 18
          },
          "indices": 19,
          "material": 4,
          "mode": 4
        }
      ]
    },
    {
      "name": "Object_5",
      "primitives": [
        {
          "attributes": {
            "NORMAL": 21,
            "POSITION": 20,
            "TEXCOORD_0": 22
          },
          "indices": 23,
          "material": 5,
          "mode": 4
        }
      ]
    }
  ],
  "nodes": [
    {
      "children": [
        1
      ],
      "matrix": [
        1.0,
        0.0,
        0.0,
        0.0,
        0.0,
        2.220446049250313e-16,
        -1.0,
        0.0,
        0.0,
        1.0,
        2.220446049250313e-16,
        0.0,
        0.0,
        0.0,
        0.0,
        1.0
      ],
      "name": "Sketchfab_model"
    },
    {
      "children": [
        2
      ],
      "name": "root"
    },
    {
      "children": [
        3
      ],
      "matrix": [
        1.0,
        0.0,
        0.0,
        0.0,
        0.0,
        2.220446049250313e-16,
        1.0,
        0.0,
        0.0,
        -1.0,
        2.220446049250313e-16,
        0.0,
        0.0,
        0.0,
        0.0,
        1.0
      ],
      "name": "GLTF_SceneRootNode"
    },
    {
      "children": [
        4,
        5,
        6,
        7,
        8,
        9
      ],
      "matrix": [
        9.210263068953996,
        2.5863934443660123e-08,
        -11.201511231925226,
        0.0,
        -0.15459344192090704,
        14.500440364318091,
        -0.12711194626400926,
        0.0,
        11.200444399656888,
        0.20014138477472537,
        9.209385883683012,
        0.0,
        3.054401397705078,
        793.7366943359375,
        -27.37090301513672,
        1.0
      ],
      "name": "Plane_2"
    },
    {
      "mesh": 0,
      "name": "Object_4"
    },
    {
      "mesh": 1,
      "name": "Object_5"
    },
    {
      "mesh": 2,
      "name": "Object_6"
    },
    {
      "mesh": 3,
      "name": "Object_7"
    },
    {
      "mesh": 4,
      "name": "Object_8"
    },
    {
      "mesh": 5,
      "name": "Object_9"
    }
  ],
  "scene": 0,
  "scenes": [
    {
      "name": "Sketchfab_Scene",
      "nodes": [
        0
      ]
    }
  ]
}
